<svg xmlns="http://www.w3.org/2000/svg" viewBox="3058 5261 60 75">
  <g id="file" transform="translate(3052 5261)">
    <path id="Path_90" data-name="Path 90" d="M51.5,25H20.25a1.25,1.25,0,0,0,0,2.5H51.5a1.25,1.25,0,0,0,0-2.5Z" transform="translate(3.25 6.25)"/>
    <path id="Path_91" data-name="Path 91" d="M20.25,19.5h12.5a1.25,1.25,0,0,0,0-2.5H20.25a1.25,1.25,0,0,0,0,2.5Z" transform="translate(3.25 4.25)"/>
    <path id="Path_92" data-name="Path 92" d="M51.5,33H20.25a1.25,1.25,0,0,0,0,2.5H51.5a1.25,1.25,0,0,0,0-2.5Z" transform="translate(3.25 8.25)"/>
    <path id="Path_93" data-name="Path 93" d="M51.5,41H20.25a1.25,1.25,0,0,0,0,2.5H51.5a1.25,1.25,0,0,0,0-2.5Z" transform="translate(3.25 10.25)"/>
    <path id="Path_94" data-name="Path 94" d="M51.5,49H20.25a1.25,1.25,0,0,0,0,2.5H51.5a1.25,1.25,0,0,0,0-2.5Z" transform="translate(3.25 12.25)"/>
    <path id="Path_95" data-name="Path 95" d="M59.75,18.233V0H6V68.75h6.25V75H66V24.483ZM48.5,10.517l11.25,11.25,1.982,1.983H48.5ZM8.5,66.25V2.5H57.25V15.733L47.768,6.25H12.25v60Zm6.25,6.25V8.75H46v17.5H63.5V72.5Z"/>
  </g>
</svg>
